<?xml version="1.0" encoding="utf-8"?>
<!-- Generator: Adobe Illustrator 22.0.1, SVG Export Plug-In . SVG Version: 6.00 Build 0)  -->
<svg version="1.1" id="Layer_1" xmlns="http://www.w3.org/2000/svg" xmlns:xlink="http://www.w3.org/1999/xlink" x="0px" y="0px"
	 viewBox="0 0 1280 1024" style="enable-background:new 0 0 1280 1024;" xml:space="preserve">
<style type="text/css">
	.st0{opacity:0.7;}
	.st1{fill:#FFFFFF;}
</style>
<g class="st0">
	<g>
		<path class="st1" d="M123,589.2c1.5-7.5,4.9-16.9,10.3-28c5.6-11.5,12.2-22.8,19.7-33.8c7.5-10.9,15.7-20.4,24.6-28.3
			c8.8-7.8,17.1-11.7,24.6-11.7c9.6,0,14.2,4.6,14.2,14.2c0,8.3-2.1,17.1-6.3,26c-4.1,9-10.4,17.6-18.5,25.6
			c-8.2,8-18.2,15.3-29.8,21.7C150.4,581.3,137.3,586.1,123,589.2z"/>
		<path d="M202.2,488c9.2,0,13.7,4.5,13.7,13.7c0,8.2-2.1,16.9-6.2,25.8c-4.1,8.9-10.3,17.5-18.4,25.4c-8.1,7.9-18.1,15.2-29.7,21.6
			c-11.2,6.2-23.9,10.9-37.9,14c1.5-7.3,4.9-16.4,10.1-27.1c5.5-11.5,12.1-22.8,19.6-33.7c7.4-10.9,15.7-20.4,24.5-28.2
			C186.6,491.9,194.8,488,202.2,488 M202.2,487c-7.7,0-16,3.9-24.9,11.8c-8.9,7.9-17.2,17.3-24.7,28.3c-7.5,11-14.1,22.3-19.7,33.9
			c-5.6,11.5-9.1,21.2-10.5,28.9c14.7-3.2,27.9-8,39.6-14.4c11.7-6.5,21.7-13.7,29.9-21.8c8.2-8,14.4-16.6,18.6-25.7
			c4.2-9.1,6.3-17.9,6.3-26.2C216.9,491.9,212,487,202.2,487L202.2,487z"/>
	</g>
	<g>
		<path class="st1" d="M787.1,675.5c-6.5,0-11.5-2.4-15.1-7.1c-3.6-4.8-5.4-11.2-5.4-19.1c0-8.3,1.5-18.2,4.4-29.3
			c2.9-11.1,7.1-22.7,12.3-34.6c5.2-11.9,11.4-23.8,18.3-35.4c7-11.7,14.5-22.2,22.5-31.4c8-9.2,16.4-16.8,24.8-22.5
			c8.4-5.7,16.9-8.6,25.2-8.6c6.5,0,11.5,2.4,15.1,7.2c3.6,4.8,5.4,11.2,5.4,19.1c0,8-1.5,17.7-4.4,29c-3,11.3-7.1,23-12.3,34.8
			c-5.2,11.8-11.4,23.7-18.3,35.4c-7,11.7-14.5,22.2-22.5,31.4c-8,9.2-16.3,16.8-24.8,22.5C803.8,672.6,795.3,675.5,787.1,675.5z"/>
		<path d="M874.2,488c6.4,0,11.2,2.3,14.7,6.9c3.5,4.7,5.3,11,5.3,18.8c0,7.9-1.5,17.6-4.4,28.9c-3,11.3-7.1,23-12.3,34.8
			c-5.2,11.8-11.4,23.7-18.3,35.3c-6.9,11.6-14.5,22.2-22.5,31.4c-8,9.2-16.3,16.7-24.7,22.4c-8.4,5.6-16.8,8.5-24.9,8.5
			c-6.4,0-11.2-2.3-14.7-6.9c-3.5-4.7-5.3-11-5.3-18.8c0-8.3,1.5-18.1,4.4-29.1c2.9-11.1,7.1-22.7,12.3-34.5
			c5.2-11.8,11.4-23.7,18.3-35.3c6.9-11.6,14.5-22.2,22.5-31.4c8-9.2,16.3-16.7,24.7-22.4C857.7,490.9,866,488,874.2,488 M874.2,487
			c-8.4,0-16.9,2.9-25.5,8.7c-8.6,5.8-16.9,13.3-24.9,22.6c-8.1,9.3-15.6,19.8-22.6,31.5c-7,11.7-13.1,23.5-18.4,35.4
			c-5.2,11.9-9.4,23.5-12.3,34.7c-3,11.2-4.5,21-4.5,29.4c0,8.1,1.8,14.5,5.5,19.4c3.7,4.9,8.8,7.3,15.5,7.3
			c8.4,0,16.9-2.9,25.5-8.7c8.6-5.8,16.9-13.3,24.9-22.6c8-9.3,15.6-19.8,22.6-31.5c7-11.7,13.1-23.5,18.4-35.4
			c5.2-11.9,9.4-23.5,12.3-34.9c3-11.4,4.5-21.1,4.5-29.1c0-8-1.8-14.5-5.5-19.4C886,489.5,880.9,487,874.2,487L874.2,487z"/>
	</g>
	<g>
		<path class="st1" d="M-7.5,1034.5V-7.5h1295v1042H-7.5z M1015.3,568.1c-4.4,8.2-8.3,15.5-11.3,21.8c-4.9,10-8.4,18.5-10.3,25.3
			c-1.9,6.8-2.9,13.9-2.9,20.9c0,13.7,4,25,11.9,33.7c7.9,8.6,20.2,13,36.3,13c21,0,40.7-4.9,58.5-14.5c17.8-9.6,34.6-21.8,50-36.3
			c15.3-14.4,29.8-30.3,43.1-47c13.2-16.7,25.9-32.2,37.8-46.2l0.4-0.5l-5.1-2.6l-0.3,0.3c-4.2,5.2-9.8,12.2-16.8,20.7
			c-7,8.6-14.9,17.9-23.4,27.5c-8.5,9.8-17.7,19.7-27.3,29.6c-9.6,9.9-19.6,19-29.9,27c-10.3,8-20.6,14.6-30.6,19.6
			c-10,5-19.7,7.6-28.7,7.6c-5.8,0-10.4-1.4-13.6-4.1c-3.2-2.7-4.8-7-4.8-12.7c0-8.6,3.2-19.9,9.4-33.4c6.3-13.6,13.7-27.9,22-42.5
			c8.4-14.7,17-29,25.5-42.5c8.4-13.4,15.2-24.4,20.1-32.8h72.5l4.7-9.4h-71.9l47.3-78.8l-74.2,2.7l-44.6,76.1h-43.6l-4.1,9.4h42.4
			c-12.4,21.4-22.7,39.4-30.5,53.3c-0.8,1.4-1.5,2.7-2.3,4.1c-8.3,4.4-16.3,6.7-24.1,6.7c-8.6,0-15.8-2.1-21.5-6.2
			c-5.7-4.2-11-9.3-15.6-15.4c-4.7-6-9.4-12.8-14.2-20.2c-4.7-7.3-10.6-14.2-17.4-20.3c-6.8-6.1-15.3-11.4-25.1-15.6
			c-9.8-4.2-22.4-6.3-37.5-6.3c-18.2,0-36.8,3-55.5,8.9c-18.7,5.9-35.7,14.7-50.6,26.1c-14.9,11.4-27.2,25.3-36.6,41.4
			c-9,15.3-13.8,32.6-14.2,51.4c-1.9,2.2-3.8,4.4-5.7,6.6c-8.7,9.9-17.5,18.9-26.2,26.7c-8.7,7.8-17.2,14.3-25.4,19.4
			c-8.1,5-15.7,7.5-22.6,7.5c-4.4,0-7.3-1.5-9-4.7c-1.7-3.2-2.6-7.3-2.6-12.1c0-6.5,2.5-15.5,7.6-26.6c5-11.1,11.8-24.1,20.2-38.5
			c8.4-14.5,18.1-30.3,28.9-47c10.8-16.7,21.9-34.2,33.1-52l0.5-0.8l-76.3,2.1l-0.1,0.2c-20.6,34.5-37.8,63.9-51.2,87.4
			c-4.8,8.3-8.7,16.3-11.8,23.8c-6.6,7.5-13.4,14.7-20.1,21.5c-13,13.2-25.8,24.4-38,33.3c-12.1,8.8-22.3,13.3-30.2,13.3
			c-2.7,0-5.1-1-7.3-3c-2.2-2-3.3-4.8-3.3-8.6c0-9.3,3.8-22.1,11.2-37.8c7.5-15.9,19.3-37.6,35.2-64.5
			C531.7,527,552.3,493,577,453.1c24.7-40,54.9-89.6,89.8-147.5l0.5-0.8l-78.4,5.3l-0.1,0.2c-22.6,38.6-43,73.1-60.6,102.4
			c-17.3,28.8-32.8,54.7-46.2,77.2c-13,21.9-24.2,41.1-33.1,57c-8.9,15.9-16.2,29.9-21.5,41.5c-1.9,4.1-3.7,8.1-5.2,11.9
			c-6.5,7.4-13.2,14.5-19.9,21.3c-13,13.2-25.8,24.4-38,33.3c-12.1,8.8-22.3,13.3-30.2,13.3c-2.7,0-5.1-1-7.3-3
			c-2.2-2-3.3-4.8-3.3-8.6c0-9.3,3.8-22.1,11.2-37.8c7.5-15.9,19.3-37.6,35.2-64.5C385.8,527,406.4,493,431,453.1
			c24.7-40,54.9-89.6,89.8-147.5l0.5-0.8l-78.4,5.3l-0.1,0.2c-22.6,38.6-43,73.1-60.6,102.4c-17.3,28.8-32.8,54.7-46.2,77.2
			c-13,21.9-24.2,41.1-33.1,57c-8.9,15.9-16.2,29.9-21.5,41.5c-1.4,2.9-2.6,5.8-3.8,8.6c-1.9,1.9-3.8,3.8-5.8,5.7
			c-19.1,18.1-38.4,33.3-57.1,45.3c-18.7,12-36.5,18-52.8,18c-7.9,0-14.7-1.4-20-4.1c-5.3-2.7-9.7-6.4-13-10.9
			c-3.3-4.5-5.6-9.8-7-15.8c-1.4-6-2.1-12.3-2.1-18.5c0-3.5,0.2-7,0.5-10.5c0.3-3.4,0.8-6.8,1.5-10.1c9.5-2.1,22.4-5.2,38.5-9.1
			c16.4-4,32.9-9.3,49.2-15.8c16.2-6.5,30.5-14.3,42.4-23.4c12-9.2,18-20.1,18-32.4c0-12.4-5.6-21.5-16.6-27
			c-10.9-5.4-24.9-8.2-41.7-8.2c-16.8,0-34.8,3.7-53.5,11.1c-18.7,7.3-36.2,17.2-52.1,29.5c-15.9,12.2-29.3,26.8-39.8,43.2
			c-10.5,16.5-15.8,34.2-15.8,52.8c0,21.4,6.4,38,19.1,49.2c12.6,11.2,31.3,16.9,55.5,16.9c27.9,0,53.6-6,76.4-17.9
			c22.5-11.8,46.1-29.3,70-52.1c-0.7,2.2-1.4,4.2-1.9,6.1c-2.5,8.6-3.7,16.9-3.7,24.5c0,11.3,3.8,20.8,11.2,28.2
			c7.4,7.4,18.7,11.2,33.4,11.2c11.9,0,24.1-3.1,36.2-9.2c12-6.1,23.9-14,35.3-23.4c11.4-9.4,22.3-19.9,32.6-31
			c0.5-0.5,0.9-1,1.4-1.5c-0.1,0.4-0.2,0.8-0.4,1.3c-2.5,8.6-3.7,16.9-3.7,24.5c0,11.3,3.8,20.8,11.2,28.2
			c7.4,7.4,18.7,11.2,33.4,11.2c11.9,0,24.1-3.1,36.2-9.2c12-6.1,23.9-14,35.3-23.4c11.4-9.4,22.3-19.9,32.6-31
			c0.7-0.7,1.4-1.5,2.1-2.2c-1.8,6.8-2.7,13-2.7,18.7c0,14.8,3.8,26.4,11.2,34.7c7.4,8.3,18.5,12.5,32.9,12.5
			c16.8,0,32.3-4.4,45.9-12.9c13.6-8.6,28.7-21.2,44.7-37.6c4.8-5,9.7-10.2,14.5-15.5c0.6,10.8,3.2,20.2,7.5,28
			c5.1,9.1,11.9,16.6,20.4,22.2c8.4,5.6,18.2,9.7,29,12.1c10.9,2.4,22.2,3.7,33.7,3.7c19.6,0,38.7-3.6,56.9-10.8
			c18.2-7.2,34.6-17.1,48.7-29.5c14.1-12.4,25.7-27,34.2-43.5c8.5-16.3,12.8-33.7,12.9-51.7h0.3c5.9,7.3,12.5,13.2,19.7,17.5
			c7.2,4.4,15.5,6.6,24.7,6.6C1003.5,571.5,1009.7,570.4,1015.3,568.1z M716.7,367.8c-10.2,0-19.1,3.7-26.3,10.9
			c-7.2,7.2-10.9,16.1-10.9,26.3c0,10.2,3.7,19.1,10.9,26.3c7.2,7.2,16.1,10.9,26.3,10.9c10.2,0,19.1-3.7,26.3-10.9
			c7.2-7.2,10.9-16.1,10.9-26.3c0-10.2-3.7-19.1-10.9-26.3C735.8,371.5,726.9,367.8,716.7,367.8z"/>
		<path d="M1287-7v1041H-7V-7H1287 M421.6,600.1c-6.5,7.3-13.2,14.5-19.8,21.2c-13,13.2-25.8,24.4-37.9,33.2
			c-12,8.8-22.1,13.2-29.9,13.2c-2.6,0-4.8-0.9-6.9-2.9c-2.1-1.9-3.1-4.6-3.1-8.2c0-9.3,3.8-21.9,11.2-37.6
			c7.5-15.8,19.3-37.5,35.1-64.5c15.9-27.1,36.5-61.1,61.2-101c24.7-40,54.9-89.6,89.8-147.5l1-1.6l-1.9,0.1l-77.2,5.2l-0.5,0
			l-0.3,0.5c-22.6,38.6-43,73.1-60.6,102.4c-17.3,28.8-32.8,54.7-46.2,77.2c-13,21.9-24.2,41.1-33.1,57
			c-8.9,15.9-16.2,29.9-21.6,41.5c-1.3,2.9-2.6,5.8-3.8,8.5c-2.1,2.1-4,3.9-5.7,5.6c-19.1,18.1-38.3,33.3-57.1,45.3
			c-18.6,11.9-36.3,18-52.5,18c-7.9,0-14.5-1.4-19.8-4.1c-5.3-2.7-9.6-6.3-12.8-10.7c-3.2-4.4-5.6-9.7-6.9-15.6
			c-1.4-6-2.1-12.2-2.1-18.4c0-3.5,0.2-7,0.5-10.4c0.3-3.2,0.8-6.5,1.4-9.8c9.4-2.1,22.3-5.1,38.2-9.1c16.4-4,33-9.3,49.2-15.8
			c16.3-6.5,30.6-14.4,42.5-23.5c12.1-9.3,18.2-20.3,18.2-32.8c0-12.6-5.7-21.8-16.8-27.4c-10.9-5.5-25.1-8.2-41.9-8.2
			c-16.9,0-34.9,3.7-53.7,11.1c-18.7,7.3-36.3,17.3-52.2,29.5c-15.9,12.3-29.4,26.8-39.9,43.3C55.4,580.2,50,598,50,616.7
			c0,21.6,6.5,38.2,19.2,49.6c12.7,11.3,31.5,17.1,55.8,17.1c28,0,53.8-6,76.6-18c22.1-11.6,45.2-28.7,68.6-50.8
			c-0.5,1.5-0.9,2.9-1.3,4.3c-2.5,8.6-3.7,17-3.7,24.7c0,11.4,3.8,21,11.3,28.5c7.5,7.5,18.9,11.3,33.8,11.3c12,0,24.2-3.1,36.4-9.3
			c12.1-6.1,24-14,35.4-23.5c11.4-9.4,22.3-19.9,32.6-31c-2.3,8.4-3.5,16.4-3.5,23.9c0,11.4,3.8,21,11.3,28.5
			c7.5,7.5,18.9,11.3,33.8,11.3c12,0,24.2-3.1,36.4-9.3c12.1-6.1,24-14,35.4-23.5c11.4-9.5,22.4-19.9,32.6-31.1
			c0.2-0.3,0.5-0.5,0.7-0.8c-1.5,6.1-2.2,11.7-2.2,16.9c0,14.9,3.8,26.7,11.3,35.1c7.5,8.4,18.7,12.7,33.3,12.7
			c16.9,0,32.5-4.4,46.2-13c13.7-8.6,28.7-21.3,44.8-37.7c4.6-4.7,9.2-9.6,13.8-14.6c0.8,10.4,3.3,19.5,7.5,27
			c5.1,9.2,12,16.7,20.5,22.4c8.5,5.6,18.3,9.7,29.2,12.2c10.9,2.5,22.3,3.7,33.8,3.7c19.6,0,38.8-3.6,57.1-10.8
			c18.2-7.2,34.7-17.1,48.9-29.6c14.2-12.4,25.8-27.1,34.4-43.6c8.4-16.1,12.7-33.2,13-50.9c5.8,7,12.3,12.7,19.2,16.9
			c7.3,4.5,15.7,6.7,24.9,6.7c6.1,0,11.8-1,17.2-2.9c-4.2,7.7-7.8,14.7-10.7,20.7c-4.9,10-8.4,18.5-10.3,25.4
			c-1.9,6.9-2.9,13.9-2.9,21c0,13.8,4.1,25.3,12.1,34c8,8.7,20.4,13.2,36.7,13.2c21.1,0,40.8-4.9,58.7-14.6
			c17.8-9.6,34.7-21.8,50.1-36.4c15.3-14.5,29.9-30.3,43.1-47.1c13.2-16.7,25.9-32.2,37.8-46.2l0.8-1l-1.1-0.6l-4.2-2.1l-0.7-0.4
			l-0.5,0.6c-4.2,5.2-9.8,12.2-16.8,20.7c-7,8.6-14.9,17.9-23.3,27.5c-8.5,9.8-17.7,19.7-27.3,29.6c-9.6,9.9-19.6,19-29.8,26.9
			c-10.2,8-20.5,14.6-30.5,19.6c-10,5-19.5,7.5-28.4,7.5c-5.7,0-10.2-1.3-13.3-4c-3.1-2.6-4.6-6.7-4.6-12.4c0-8.6,3.1-19.7,9.4-33.2
			c6.3-13.6,13.7-27.8,22-42.4c8.4-14.7,17-29,25.4-42.5c8.3-13.3,15-24.2,19.9-32.6h71.9h0.6l0.3-0.6l4.2-8.4l0.7-1.4h-1.6h-70.2
			L1178,413l0.9-1.6l-1.8,0.1l-73,2.6l-0.5,0l-0.3,0.5l-44.3,75.6h-43h-0.7l-0.3,0.6l-3.7,8.4l-0.6,1.4h1.5h40.8
			c-12.2,21.1-22.4,38.8-30.1,52.6c-0.8,1.3-1.5,2.7-2.2,4c-8.1,4.4-16.1,6.6-23.7,6.6c-8.5,0-15.6-2.1-21.2-6.1
			c-5.7-4.1-10.9-9.3-15.5-15.3c-4.7-6-9.4-12.8-14.1-20.1c-4.7-7.4-10.6-14.3-17.5-20.4c-6.9-6.2-15.4-11.4-25.2-15.7
			c-9.9-4.2-22.6-6.4-37.7-6.4c-18.2,0-37,3-55.7,9c-18.8,6-35.8,14.8-50.7,26.1c-14.9,11.4-27.3,25.4-36.7,41.5
			c-9,15.3-13.8,32.6-14.3,51.4c-2,2.4-3.9,4.5-5.6,6.4c-8.7,9.9-17.5,18.9-26.2,26.7c-8.7,7.8-17.2,14.3-25.3,19.3
			c-8,5-15.5,7.5-22.3,7.5c-4.2,0-7-1.5-8.6-4.5c-1.7-3.2-2.5-7.1-2.5-11.9c0-6.5,2.5-15.3,7.5-26.4c5-11.1,11.8-24,20.2-38.5
			c8.4-14.5,18.1-30.3,28.8-46.9c10.8-16.7,21.9-34.2,33.1-52l1-1.6l-1.9,0.1l-75.1,2.1l-0.5,0l-0.3,0.5
			c-20.6,34.5-37.8,63.9-51.2,87.4c-4.8,8.3-8.7,16.3-11.8,23.8c-6.6,7.4-13.3,14.7-20,21.4c-13,13.2-25.8,24.4-37.9,33.2
			c-12,8.8-22.1,13.2-29.9,13.2c-2.6,0-4.8-0.9-6.9-2.9c-2.1-1.9-3.1-4.6-3.1-8.2c0-9.3,3.8-21.9,11.2-37.6
			c7.5-15.8,19.3-37.5,35.1-64.5c15.9-27.1,36.5-61.1,61.2-101c24.7-40,54.9-89.6,89.8-147.5l1-1.6l-1.9,0.1l-77.2,5.2l-0.5,0
			l-0.3,0.5c-22.6,38.6-43,73.1-60.6,102.4c-17.3,28.8-32.8,54.7-46.2,77.2c-13,21.9-24.2,41.1-33.1,57
			c-8.9,15.9-16.2,29.9-21.6,41.5C424.9,592.3,423.1,596.3,421.6,600.1 M716.7,442.8c10.4,0,19.4-3.7,26.7-11.1
			c7.3-7.3,11.1-16.3,11.1-26.7c0-10.4-3.7-19.4-11.1-26.7c-7.3-7.3-16.3-11.1-26.7-11.1c-10.4,0-19.4,3.7-26.7,11.1
			c-7.3,7.3-11.1,16.3-11.1,26.7c0,10.4,3.7,19.4,11.1,26.7C697.3,439.1,706.3,442.8,716.7,442.8 M1288-8H-8v1043h1296V-8L1288-8z
			 M666.3,305.3c-35,58.1-64.9,107.3-89.8,147.5c-24.9,40.3-45.2,73.9-61.2,101.1c-15.9,27.1-27.7,48.7-35.2,64.6
			c-7.5,15.9-11.3,28.6-11.3,38.1c0,3.9,1.1,6.8,3.4,8.9c2.3,2.1,4.8,3.2,7.6,3.2c8,0,18.2-4.5,30.5-13.4
			c12.2-8.9,24.9-20,38.1-33.3c6.8-6.9,13.6-14.1,20.2-21.6c3.1-7.4,7-15.4,11.9-23.8c13.5-23.6,30.5-52.8,51.2-87.4l75.1-2.1
			c-11.2,17.9-22.2,35.2-33.1,52c-10.9,16.8-20.5,32.5-28.9,47c-8.4,14.5-15.1,27.4-20.2,38.6c-5.1,11.2-7.6,20.1-7.6,26.8
			c0,4.9,0.9,9,2.6,12.3c1.7,3.3,4.9,5,9.5,5c7,0,14.6-2.5,22.8-7.6c8.2-5.1,16.7-11.5,25.5-19.4c8.7-7.9,17.5-16.8,26.2-26.8
			c2-2.2,3.9-4.5,5.8-6.7c0.4-18.9,5.1-36,14.1-51.3c9.5-16.1,21.6-29.8,36.5-41.2c14.9-11.4,31.7-20,50.4-26
			c18.7-5.9,37.2-8.9,55.4-8.9c15,0,27.5,2.1,37.3,6.3c9.8,4.2,18.1,9.4,24.9,15.5c6.8,6.1,12.6,12.9,17.3,20.2
			c4.7,7.3,9.5,14.1,14.2,20.2c4.7,6.1,10,11.3,15.8,15.5c5.8,4.2,13,6.3,21.8,6.3c7.9,0,16-2.3,24.4-6.8c0.8-1.4,1.5-2.8,2.3-4.2
			c8-14.3,18.4-32.4,31-54.1h-42.5l3.7-8.4h43.6l44.6-76.1l73-2.6l-47.2,78.8h71.9l-4.2,8.4h-72.5c-4.9,8.4-11.6,19.4-20.2,33.1
			c-8.6,13.7-17.1,27.8-25.5,42.5c-8.4,14.7-15.8,28.9-22,42.5c-6.3,13.7-9.5,24.9-9.5,33.6c0,6,1.7,10.3,5,13.1
			c3.3,2.8,8,4.2,13.9,4.2c9.1,0,18.7-2.5,28.9-7.6c10.1-5.1,20.4-11.6,30.7-19.7c10.3-8,20.3-17.1,29.9-27
			c9.6-10,18.7-19.9,27.3-29.7c8.6-9.8,16.4-19,23.4-27.6c7-8.6,12.6-15.5,16.8-20.7l4.2,2.1c-11.9,14-24.5,29.4-37.8,46.2
			c-13.3,16.8-27.7,32.5-43.1,47c-15.4,14.5-32,26.6-49.9,36.2c-17.8,9.6-37.3,14.4-58.3,14.4c-16.1,0-28.1-4.3-36-12.9
			c-7.9-8.6-11.8-19.7-11.8-33.3c0-7,1-13.9,2.9-20.7c1.9-6.8,5.3-15.2,10.2-25.2c3.3-6.7,7.3-14.4,12-23.1
			c-5.9,2.6-12.4,3.9-19.4,3.9c-9.1,0-17.2-2.2-24.4-6.6c-7.2-4.4-13.7-10.2-19.7-17.6h-1.1c0,18.2-4.3,35.5-12.9,52
			c-8.6,16.5-20,30.9-34.1,43.3c-14.2,12.4-30.4,22.2-48.6,29.4c-18.2,7.2-37.1,10.8-56.7,10.8c-11.5,0-22.8-1.2-33.6-3.7
			c-10.9-2.5-20.5-6.5-28.9-12.1c-8.4-5.6-15.1-12.9-20.2-22c-4.5-8-7-17.7-7.5-29c-4.9,5.5-10,11-15.3,16.4
			c-16.1,16.5-31,29-44.6,37.5c-13.7,8.6-28.9,12.9-45.7,12.9c-14.4,0-25.2-4.1-32.6-12.3c-7.3-8.2-11-19.7-11-34.4
			c0-6.2,1.1-13.1,3.2-20.6c-1.1,1.3-2.3,2.5-3.4,3.8c-10.3,11.2-21.2,21.5-32.5,31c-11.4,9.5-23.1,17.2-35.2,23.4
			c-12.1,6.1-24.1,9.2-36,9.2c-14.7,0-25.7-3.7-33.1-11c-7.4-7.4-11-16.6-11-27.8c0-7.7,1.2-15.8,3.7-24.4c0.3-1.1,0.7-2.2,1-3.4
			c-0.9,1-1.9,2.1-2.9,3.1c-10.3,11.2-21.2,21.5-32.5,31c-11.4,9.5-23.1,17.2-35.2,23.4c-12.1,6.1-24.1,9.2-36,9.2
			c-14.7,0-25.7-3.7-33.1-11c-7.4-7.4-11-16.6-11-27.8c0-7.7,1.2-15.8,3.7-24.4c0.7-2.5,1.6-5.3,2.6-8.1c-0.3,0.3-0.7,0.7-1,1
			c-24.2,23.1-47.6,40.6-70.3,52.5c-22.8,11.9-48.1,17.8-76.1,17.8c-24.2,0-42.5-5.6-55.1-16.8C57.3,654.3,51,638,51,616.7
			c0-18.5,5.2-36,15.8-52.5c10.5-16.4,23.7-30.8,39.6-43c15.9-12.2,33.2-22,52-29.4c18.7-7.4,36.5-11,53.3-11
			c16.8,0,30.6,2.7,41.5,8.1c10.8,5.4,16.3,14.3,16.3,26.5c0,12.3-6,22.9-17.9,32c-11.9,9.1-26,16.9-42.3,23.4
			c-16.3,6.5-32.6,11.7-49.1,15.8c-16.5,4-29.4,7.1-38.9,9.2c-0.7,3.5-1.2,7-1.6,10.5c-0.4,3.5-0.5,7-0.5,10.5
			c0,6.3,0.7,12.5,2.1,18.6c1.4,6.1,3.8,11.5,7.1,16c3.3,4.6,7.7,8.2,13.1,11c5.4,2.8,12.2,4.2,20.2,4.2c16.4,0,34.1-6,53-18.1
			c18.9-12.1,38-27.2,57.2-45.4c2-1.9,3.9-3.9,5.9-5.8c1.2-2.8,2.5-5.7,3.9-8.7c5.4-11.7,12.6-25.5,21.5-41.5
			c8.9-15.9,20-34.9,33.1-57c13.1-22,28.5-47.8,46.2-77.2c17.7-29.4,37.9-63.5,60.6-102.4l77.2-5.2c-35,58.1-64.9,107.3-89.8,147.5
			c-24.9,40.3-45.2,73.9-61.2,101.1c-15.9,27.1-27.7,48.7-35.2,64.6c-7.5,15.9-11.3,28.6-11.3,38.1c0,3.9,1.1,6.8,3.4,8.9
			c2.3,2.1,4.8,3.2,7.6,3.2c8,0,18.2-4.5,30.5-13.4c12.2-8.9,24.9-20,38.1-33.3c6.8-6.9,13.4-14,19.9-21.3c1.6-3.8,3.3-7.8,5.3-12
			c5.4-11.7,12.6-25.5,21.5-41.5c8.9-15.9,20-34.9,33.1-57c13.1-22,28.5-47.8,46.2-77.2c17.7-29.4,37.9-63.5,60.6-102.4L666.3,305.3
			L666.3,305.3z M716.7,441.8c-10.2,0-18.8-3.6-26-10.8c-7.2-7.2-10.8-15.8-10.8-26c0-10.1,3.6-18.8,10.8-26
			c7.2-7.2,15.8-10.8,26-10.8c10.1,0,18.8,3.6,26,10.8c7.2,7.2,10.8,15.8,10.8,26c0,10.2-3.6,18.8-10.8,26
			C735.5,438.3,726.9,441.8,716.7,441.8L716.7,441.8z"/>
	</g>
</g>
</svg>
