<?xml version="1.0" encoding="utf-8"?>
<!-- Generator: Adobe Illustrator 22.0.1, SVG Export Plug-In . SVG Version: 6.00 Build 0)  -->
<svg version="1.1" id="Layer_1" xmlns="http://www.w3.org/2000/svg" xmlns:xlink="http://www.w3.org/1999/xlink" x="0px" y="0px"
	 viewBox="0 0 1920 1080" style="enable-background:new 0 0 1920 1080;" xml:space="preserve">
<style type="text/css">
	.st0{opacity:0.7;}
	.st1{fill:#FFFFFF;}
</style>
<g class="st0">
	<path class="st1" d="M1217.1,466.4c-8.8,0-17.7,3.1-26.7,9.3c-9,6.2-17.7,14.3-26.1,24.2c-8.4,10-16.3,21.2-23.7,33.9
		c-7.3,12.6-13.8,25.3-19.2,38.1c-5.5,12.8-9.8,25.2-12.9,37.2c-3.1,12-4.7,22.6-4.7,31.6c0,8.6,1.9,15.6,5.8,20.8
		c3.8,5.2,9.3,7.9,16.2,7.9c8.8,0,17.7-3.1,26.7-9.3c9-6.2,17.7-14.3,26.1-24.2c8.4-10,16.3-21.2,23.7-33.9
		c7.3-12.6,13.8-25.3,19.2-38.1c5.5-12.8,9.8-25.3,12.9-37.5c3.1-12.2,4.7-22.7,4.7-31.3s-1.9-15.6-5.8-20.8
		C1229.4,469.1,1224,466.4,1217.1,466.4z"/>
	<path class="st1" d="M502.3,538.1c8.6-8.6,15.1-17.9,19.5-27.7c4.4-9.7,6.6-19.2,6.6-28.2c0-10.6-5.1-15.8-15.4-15.8
		c-8.1,0-16.8,4.2-26.1,12.7c-9.3,8.4-18,18.6-25.8,30.5c-7.9,11.8-14.8,24-20.6,36.4c-5.9,12.4-9.5,22.8-11,31
		c15.4-3.4,29.2-8.5,41.5-15.5C483.3,554.6,493.7,546.8,502.3,538.1z"/>
	<path class="st1" d="M0-14v1108h1920V-14H0z M1024.8,350.5c7.5-7.7,16.6-11.6,27.2-11.6s19.7,3.9,27.2,11.6
		c7.5,7.7,11.3,17,11.3,27.9s-3.8,20.2-11.3,27.9c-7.5,7.7-16.6,11.6-27.2,11.6s-19.7-3.9-27.2-11.6c-7.5-7.7-11.3-17-11.3-27.9
		C1013.6,367.5,1017.3,358.2,1024.8,350.5z M1548.1,571.4c-13.9,18.1-29,34.9-45.1,50.5c-16.1,15.6-33.5,28.6-52.2,39
		s-39,15.5-61,15.5c-16.9,0-29.4-4.6-37.7-13.8s-12.4-21.1-12.4-35.8c0-7.5,1-15,3-22.3c2-7.4,5.6-16.4,10.7-27.1
		c3.4-7.2,7.7-15.5,12.6-24.8c-6.2,2.8-13,4.2-20.3,4.2c-9.5,0-18.1-2.4-25.6-7.1c-7.5-4.7-14.4-11-20.6-18.9h-1.1
		c0,19.6-4.5,38.2-13.5,55.8c-9,17.6-20.9,33.2-35.8,46.6c-14.8,13.3-31.8,23.9-50.9,31.6s-38.9,11.6-59.4,11.6
		c-12.1,0-23.8-1.3-35.2-3.9c-11.4-2.7-21.5-7-30.2-13c-8.8-6.1-15.9-14-21.2-23.7c-4.7-8.6-7.3-19-7.9-31.2
		c-5.2,6-10.5,11.8-16.1,17.6c-16.9,17.6-32.5,31.1-46.8,40.3c-14.3,9.2-30.2,13.8-47.9,13.8c-15,0-26.4-4.4-34.1-13.2
		c-7.7-8.8-11.6-21.1-11.6-36.9c0-6.7,1.1-14.1,3.3-22.2c-1.2,1.3-2.4,2.7-3.6,4.1c-10.8,12-22.2,23.2-34.1,33.3
		c-11.9,10.2-24.2,18.6-36.9,25.1c-12.6,6.6-25.2,9.8-37.7,9.8c-15.4,0-26.9-3.9-34.6-11.9c-7.7-7.9-11.5-17.9-11.5-29.9
		c0-8.3,1.3-17,3.9-26.3c0.3-1.2,0.7-2.4,1.1-3.7c-1,1.1-2,2.3-3,3.4c-10.8,12-22.2,23.2-34.1,33.3c-11.9,10.2-24.2,18.6-36.9,25.1
		c-12.6,6.6-25.2,9.8-37.7,9.8c-15.4,0-26.9-3.9-34.6-11.9c-7.7-7.9-11.5-17.9-11.5-29.9c0-8.3,1.3-17,3.9-26.3
		c0.8-2.8,1.7-5.6,2.7-8.7c-0.4,0.3-0.7,0.7-1.1,1c-25.3,24.8-49.9,43.6-73.7,56.4c-23.8,12.8-50.4,19.2-79.8,19.2
		c-25.3,0-44.6-6.1-57.8-18.1c-13.2-12-19.8-29.5-19.8-52.5c0-19.9,5.5-38.8,16.5-56.4s24.8-33.1,41.5-46.3
		c16.7-13.1,34.8-23.7,54.5-31.6c19.6-7.9,38.2-11.9,55.8-11.9s32.1,2.9,43.4,8.7c11.4,5.8,17.1,15.3,17.1,28.5
		c0,13.1-6.2,24.6-18.7,34.4s-27.2,18.2-44.3,25.1c-17.1,7-34.2,12.6-51.4,16.9c-17.2,4.3-30.8,7.6-40.7,9.8
		c-0.7,3.8-1.3,7.5-1.6,11.3c-0.4,3.8-0.6,7.5-0.6,11.3c0,6.8,0.7,13.4,2.2,20c1.5,6.6,3.9,12.3,7.4,17.2c3.5,4.9,8.1,8.8,13.8,11.8
		c5.7,3,12.7,4.5,21.2,4.5c17.2,0,35.8-6.5,55.5-19.5c19.8-13,39.8-29.2,60-48.8c2.1-2.1,4.1-4.1,6.1-6.3c1.2-3,2.6-6.1,4-9.3
		c5.7-12.6,13.2-27.5,22.5-44.5c9.4-17.1,20.9-37.5,34.6-61.2c13.8-23.7,29.9-51.3,48.4-82.9s39.7-68.3,63.5-110l80.8-5.6
		c-36.7,62.5-68,115.3-94,158.5c-26,43.3-47.4,79.5-64.1,108.6c-16.7,29.1-29,52.3-36.8,69.4c-7.9,17.1-11.8,30.8-11.8,40.9
		c0,4.1,1.2,7.3,3.6,9.6c2.4,2.3,5,3.4,8,3.4c8.4,0,19.1-4.8,31.9-14.4c12.8-9.6,26.1-21.5,39.9-35.8c7.1-7.4,14-15,20.9-23
		c1.6-4.1,3.5-8.4,5.5-12.9c5.7-12.6,13.2-27.5,22.5-44.5c9.4-17.1,20.9-37.5,34.6-61.2c13.8-23.7,29.9-51.3,48.4-82.9
		s39.7-68.3,63.5-110l80.8-5.6c-36.7,62.5-68,115.3-94,158.5c-26,43.3-47.4,79.5-64.1,108.6c-16.7,29.1-29,52.3-36.8,69.4
		c-7.9,17.1-11.8,30.8-11.8,40.9c0,4.1,1.2,7.3,3.6,9.6c2.4,2.3,5,3.4,8,3.4c8.4,0,19.1-4.8,31.9-14.4c12.8-9.6,26.1-21.5,39.9-35.8
		c7.2-7.5,14.2-15.2,21.1-23.2c3.2-8,7.4-16.5,12.4-25.5c14.1-25.4,32-56.7,53.6-94l78.7-2.3c-11.7,19.2-23.3,37.9-34.7,55.9
		s-21.4,34.9-30.2,50.5c-8.8,15.6-15.9,29.4-21.2,41.4c-5.3,12-8,21.6-8,28.7c0,5.2,0.9,9.6,2.8,13.2c1.8,3.6,5.1,5.3,9.9,5.3
		c7.3,0,15.3-2.8,23.9-8.2c8.6-5.4,17.5-12.4,26.7-20.8s18.3-18.1,27.5-28.8c2.1-2.5,4.1-4.8,6.1-7.2c0.4-20.2,5.4-38.7,14.8-55.2
		c9.9-17.3,22.6-32.1,38.2-44.3c15.6-12.2,33.2-21.5,52.8-27.9c19.6-6.4,39-9.6,58-9.6c15.8,0,28.8,2.3,39,6.8
		c10.3,4.5,19,10.1,26.1,16.6c7.2,6.6,13.2,13.8,18.2,21.7c5,7.9,9.9,15.2,14.8,21.7c5,6.6,10.5,12.1,16.5,16.6s13.7,6.8,22.8,6.8
		c8.3,0,16.8-2.5,25.6-7.3c0.8-1.5,1.6-3,2.5-4.5c8.4-15.4,19.2-34.8,32.5-58.1h-44.6l3.9-9h45.6l46.8-81.9l76.5-2.9l-49.5,84.6
		h75.4l-4.4,9h-75.9c-5.1,9-12.2,20.8-21.2,35.5s-17.9,30-26.7,45.7s-16.5,31-23.1,45.7c-6.6,14.7-9.9,26.7-9.9,36.1
		c0,6.4,1.7,11.1,5.2,14.2c3.5,3,8.3,4.5,14.6,4.5c9.5,0,19.6-2.8,30.2-8.2s21.4-12.5,32.2-21.1c10.8-8.6,21.3-18.4,31.4-29
		c10.1-10.8,19.6-21.3,28.6-31.9c9-10.6,17.1-20.4,24.5-29.6c7.3-9.2,13.2-16.6,17.6-22.3l4.4,2.3
		C1575.3,536.8,1562.1,553.3,1548.1,571.4z"/>
</g>
</svg>
