<?xml version="1.0" encoding="utf-8"?>
<!-- Generator: Adobe Illustrator 22.0.1, SVG Export Plug-In . SVG Version: 6.00 Build 0)  -->
<svg version="1.1" id="Layer_1" xmlns="http://www.w3.org/2000/svg" xmlns:xlink="http://www.w3.org/1999/xlink" x="0px" y="0px"
	 viewBox="0 0 1080 1920" style="enable-background:new 0 0 1080 1920;" xml:space="preserve">
<style type="text/css">
	.st0{opacity:0.7;}
	.st1{fill:#FFFFFF;}
</style>
<g class="st0">
	<path class="st1" d="M133.5,923.1c7.6-7.4,13.3-15.3,17.1-23.7c3.9-8.4,5.8-16.4,5.8-24.1c0-9-4.5-13.5-13.5-13.5
		c-7.1,0-14.7,3.6-22.9,10.9c-8.2,7.2-15.8,15.9-22.7,26.1c-6.9,10.1-13,20.5-18.1,31.2c-5.2,10.6-8.4,19.5-9.7,26.6
		c13.5-2.9,25.7-7.3,36.5-13.3C116.8,937.2,126,930.5,133.5,923.1z"/>
	<path class="st1" d="M1052,951.6c-12.2,15.5-25.4,29.9-39.6,43.2c-14.2,13.4-29.5,24.5-45.9,33.3s-34.3,13.3-53.6,13.3
		c-14.8,0-25.8-3.9-33.1-11.8c-7.2-7.9-10.9-18.1-10.9-30.7c0-6.4,0.9-12.8,2.7-19.1c1.8-6.3,4.9-14,9.4-23.2
		c3-6.2,6.7-13.3,11.1-21.2c-5.5,2.4-11.4,3.6-17.8,3.6c-8.4,0-15.9-2-22.5-6c-6.6-4-12.6-9.4-18.1-16.2h-1
		c0,16.7-3.9,32.7-11.8,47.8c-7.9,15.1-18.4,28.4-31.4,39.8c-13,11.4-27.9,20.5-44.7,27c-16.7,6.6-34.1,9.9-52.2,9.9
		c-10.6,0-20.9-1.1-30.9-3.4c-10-2.3-18.8-6-26.6-11.1c-7.7-5.1-13.9-11.9-18.6-20.3c-4.1-7.4-6.4-16.3-6.9-26.7
		c-4.5,5.1-9.2,10.1-14.1,15.1c-14.8,15.1-28.5,26.6-41.1,34.5c-12.6,7.9-26.6,11.8-42,11.8c-13.2,0-23.2-3.8-29.9-11.4
		c-6.8-7.6-10.1-18.1-10.1-31.6c0-5.7,1-12.1,2.9-18.9c-1,1.2-2.1,2.3-3.2,3.5c-9.5,10.3-19.5,19.8-29.9,28.5
		c-10.5,8.7-21.3,15.9-32.4,21.5s-22.1,8.5-33.1,8.5c-13.5,0-23.7-3.4-30.4-10.1c-6.8-6.8-10.1-15.3-10.1-25.6
		c0-7.1,1.1-14.6,3.4-22.5c0.3-1,0.6-2.1,0.9-3.1c-0.9,1-1.7,1.9-2.6,2.9c-9.5,10.3-19.5,19.8-29.9,28.5
		c-10.5,8.7-21.3,15.9-32.4,21.5s-22.1,8.5-33.1,8.5c-13.5,0-23.7-3.4-30.4-10.1c-6.8-6.8-10.1-15.3-10.1-25.6
		c0-7.1,1.1-14.6,3.4-22.5c0.7-2.3,1.5-4.8,2.4-7.4c-0.3,0.3-0.6,0.6-0.9,0.9c-22.2,21.3-43.8,37.4-64.7,48.3
		c-20.9,10.9-44.3,16.4-70,16.4c-22.2,0-39.1-5.2-50.7-15.5c-11.6-10.3-17.4-25.3-17.4-44.9c0-17.1,4.8-33.2,14.5-48.3
		c9.7-15.1,21.8-28.3,36.5-39.6c14.6-11.3,30.6-20.3,47.8-27c17.2-6.8,33.6-10.1,49-10.1s28.2,2.5,38.2,7.5c10,5,15,13.1,15,24.4
		c0,11.3-5.5,21.1-16.4,29.5c-11,8.4-23.9,15.5-38.9,21.5c-15,6-30,10.8-45.2,14.5c-15.1,3.7-27,6.5-35.7,8.5
		c-0.6,3.2-1.1,6.4-1.4,9.7c-0.3,3.2-0.5,6.4-0.5,9.7c0,5.8,0.6,11.5,1.9,17.1c1.3,5.6,3.5,10.6,6.5,14.7c3.1,4.2,7.1,7.6,12.1,10.1
		c5,2.6,11.2,3.9,18.6,3.9c15.1,0,31.4-5.6,48.8-16.7s34.9-25,52.6-41.8c1.8-1.8,3.6-3.6,5.4-5.3c1.1-2.6,2.3-5.2,3.5-8
		c5-10.8,11.6-23.5,19.8-38.2c8.2-14.6,18.4-32.1,30.4-52.4c12.1-20.3,26.2-44,42.5-71c16.3-27,34.9-58.4,55.8-94.2l71-4.8
		c-32.2,53.5-59.7,98.7-82.6,135.7c-22.9,37-41.6,68-56.3,93c-14.7,25-25.4,44.8-32.4,59.4c-6.9,14.7-10.4,26.3-10.4,35
		c0,3.5,1,6.3,3.1,8.2c2.1,1.9,4.4,2.9,7,2.9c7.4,0,16.7-4.1,28-12.3c11.3-8.2,22.9-18.4,35-30.7c6.2-6.3,12.3-12.9,18.3-19.6
		c1.4-3.5,3-7.2,4.8-11c5-10.8,11.6-23.5,19.8-38.2c8.2-14.6,18.4-32.1,30.4-52.4c12.1-20.3,26.2-44,42.5-71
		c16.3-27,34.9-58.4,55.8-94.2l71-4.8c-32.2,53.5-59.7,98.7-82.6,135.7c-22.9,37-41.6,68-56.3,93c-14.7,25-25.4,44.8-32.4,59.4
		c-6.9,14.7-10.4,26.3-10.4,35c0,3.5,1,6.3,3.1,8.2c2.1,1.9,4.4,2.9,7,2.9c7.4,0,16.7-4.1,28-12.3c11.3-8.2,22.9-18.4,35-30.7
		c6.3-6.4,12.5-13,18.6-19.9c2.8-6.8,6.5-14.1,10.9-21.9c12.4-21.7,28.1-48.5,47.1-80.4l69.1-1.9c-10.3,16.4-20.5,32.4-30.4,47.8
		c-10,15.5-18.8,29.9-26.6,43.2c-7.7,13.4-13.9,25.2-18.6,35.5c-4.7,10.3-7,18.5-7,24.6c0,4.5,0.8,8.3,2.4,11.4
		c1.6,3.1,4.5,4.6,8.7,4.6c6.4,0,13.4-2.3,21-7c7.6-4.7,15.4-10.6,23.4-17.9c8-7.2,16.1-15.5,24.2-24.6c1.8-2.1,3.6-4.1,5.4-6.2
		c0.4-17.3,4.7-33.1,13-47.2c8.7-14.8,19.9-27.4,33.6-37.9c13.7-10.5,29.1-18.4,46.4-23.9c17.2-5.5,34.2-8.2,51-8.2
		c13.8,0,25.3,1.9,34.3,5.8c9,3.9,16.7,8.6,22.9,14.2c6.3,5.6,11.6,11.8,15.9,18.6c4.3,6.8,8.7,13,13,18.6
		c4.3,5.6,9.2,10.4,14.5,14.2c5.3,3.9,12,5.8,20,5.8c7.3,0,14.7-2.1,22.5-6.3c0.7-1.3,1.4-2.6,2.2-3.9c7.4-13.2,16.9-29.8,28.5-49.7
		h-39.1l3.4-7.7h40.1l41.1-70l67.1-2.4l-43.5,72.4h66.2l-3.9,7.7h-66.7c-4.5,7.7-10.7,17.9-18.6,30.4c-7.9,12.6-15.7,25.6-23.4,39.1
		c-7.7,13.5-14.5,26.6-20.3,39.1c-5.8,12.6-8.7,22.9-8.7,30.9c0,5.5,1.5,9.5,4.6,12.1c3.1,2.6,7.3,3.9,12.8,3.9
		c8.4,0,17.2-2.3,26.6-7c9.3-4.7,18.8-10.7,28.3-18.1c9.5-7.4,18.7-15.7,27.5-24.9c8.9-9.2,17.2-18.3,25.1-27.3
		c7.9-9,15-17.5,21.5-25.4c5-6.1,9.1-11.2,12.6-15.5V0H0v1920h1080V917.1C1071.1,927.8,1061.7,939.3,1052,951.6z M592.4,762.5
		c6.6-6.6,14.6-9.9,23.9-9.9c9.3,0,17.3,3.3,23.9,9.9c6.6,6.6,9.9,14.6,9.9,23.9c0,9.3-3.3,17.3-9.9,23.9
		c-6.6,6.6-14.6,9.9-23.9,9.9c-9.3,0-17.3-3.3-23.9-9.9c-6.6-6.6-9.9-14.6-9.9-23.9C582.5,777.1,585.8,769.1,592.4,762.5z"/>
	<path class="st1" d="M681,1035.7c7.7,0,15.5-2.7,23.4-8c7.9-5.3,15.5-12.2,22.9-20.8c7.4-8.5,14.3-18.2,20.8-29
		c6.4-10.8,12.1-21.7,16.9-32.6c4.8-10.9,8.6-21.7,11.4-32.1c2.7-10.5,4.1-19.4,4.1-26.8c0-7.4-1.7-13.4-5.1-17.9
		c-3.4-4.5-8.1-6.8-14.2-6.8c-7.7,0-15.5,2.7-23.4,8c-7.9,5.3-15.5,12.2-22.9,20.8c-7.4,8.5-14.3,18.2-20.8,29
		c-6.4,10.8-12.1,21.7-16.9,32.6c-4.8,11-8.6,21.6-11.4,31.9c-2.7,10.3-4.1,19.3-4.1,27c0,7.4,1.7,13.4,5.1,17.9
		C670.2,1033.4,674.9,1035.7,681,1035.7z"/>
</g>
</svg>
